<?xml version="1.0" standalone="no"?>
<!DOCTYPE svg PUBLIC "-//W3C//DTD SVG 20010904//EN"
 "http://www.w3.org/TR/2001/REC-SVG-20010904/DTD/svg10.dtd">
<svg version="1.0" xmlns="http://www.w3.org/2000/svg"
 width="264.000000pt" height="264.000000pt" viewBox="0 0 264.000000 264.000000"
 preserveAspectRatio="xMidYMid meet">
<metadata>
Created by potrace 1.11, written by Peter Selinger 2001-2013
</metadata>
<g transform="translate(0.000000,264.000000) scale(0.100000,-0.100000)"
fill="#000000" stroke="none">
<path d="M1443 1939 l-282 -127 -230 -1 c-126 0 -246 -3 -268 -6 -65 -12 -123
-52 -144 -101 -19 -41 -19 -69 -17 -584 3 -468 5 -542 18 -550 22 -14 1428
-13 1469 1 31 11 61 52 61 84 0 9 9 15 24 15 13 0 30 7 37 16 19 23 29 427 20
777 l-7 278 -31 30 c-29 30 -35 31 -142 37 l-112 7 -57 126 -57 126 -282 -128z"/>
</g>
</svg>
